<?xml version="1.0" encoding="UTF-8"?>
<!-- (c) Carrd Inc. All rights reserved. All logos and trademarks are property of their respective owners. -->
<svg xmlns="http://www.w3.org/2000/svg" version="1.1" xmlns:xlink="http://www.w3.org/1999/xlink" viewBox="0 0 40 40" display="none" width="0" height="0">
	<symbol id="discord" viewBox="0 0 40 40"><path d="M33.2,8.3c-2.5-1.1-5.1-1.9-7.9-2.4c-0.3,0.6-0.7,1.4-1,2c-2.9-0.4-5.8-0.4-8.7,0c-0.3-0.6-0.7-1.4-1-2 c-2.8,0.5-5.4,1.3-7.9,2.4c-5,7.2-6.3,14.2-5.6,21.1c3.3,2.3,6.5,3.8,9.6,4.7c0.8-1,1.5-2.1,2.1-3.3c-1.1-0.4-2.2-0.9-3.2-1.5 c0.3-0.2,0.5-0.4,0.8-0.6c6.3,2.8,13,2.8,19.2,0c0.3,0.2,0.5,0.4,0.8,0.6c-1,0.6-2.1,1.1-3.2,1.5c0.6,1.1,1.3,2.2,2.1,3.3 c3.1-0.9,6.3-2.4,9.6-4.7C39.7,21.4,37.5,14.4,33.2,8.3z M13.7,25.1c-1.9,0-3.4-1.7-3.4-3.7s1.5-3.7,3.4-3.7c1.9,0,3.5,1.7,3.4,3.7 C17.1,23.4,15.6,25.1,13.7,25.1z M26.3,25.1c-1.9,0-3.4-1.7-3.4-3.7s1.5-3.7,3.4-3.7c1.9,0,3.5,1.7,3.4,3.7 C29.7,23.4,28.2,25.1,26.3,25.1z"/></symbol>
	<symbol id="calendar" viewBox="0 0 40 40"><path d="M16.9,8.9h6.3v-2.7c0-.8.8-1.6,1.5-1.8.6-.1,2.2-.1,2.8,0,.9,0,1.8.9,1.8,1.8v2.7h2.6c1.5,0,3,1.7,3,3.1v20.3c-.1,1.7-1.4,3.1-3.2,3.2H8.1c-1.7-.1-3-1.5-3.1-3.2V12.1c0-1.5,1.5-3.1,3-3.1h2.6v-2.7c0-.8.8-1.6,1.5-1.8.6-.1,2.2-.1,2.8,0,.9,0,1.8.9,1.8,1.8v2.7ZM15.3,8.9v-2.7c0,0-.2-.2-.3-.2-.8,0-1.7,0-2.4,0-.1,0-.3,0-.3.2v2.7h3ZM27.7,8.9v-2.7c0,0-.2-.2-.3-.2-.8,0-1.7,0-2.4,0-.1,0-.3,0-.3.2v2.7h3ZM12.2,16.3h-5.5v5h5.5v-5ZM19.3,16.3h-5.7v5h5.7v-5ZM26.4,16.3h-5.7v5h5.7v-5ZM33.3,16.3h-5.5v5h5.5v-5ZM12.2,22.7h-5.5v5.1h5.5v-5.1ZM19.3,22.7h-5.7v5.1h5.7v-5.1ZM26.4,22.7h-5.7v5.1h5.7v-5.1ZM33.3,22.7h-5.5v5.1h5.5v-5.1ZM12.2,29.2h-5.5v3.3c0,.6.9,1.4,1.5,1.4h4v-4.7ZM19.3,29.2h-5.7v4.7h5.7v-4.7ZM26.4,29.2h-5.7v4.7h5.7v-4.7ZM33.3,29.2h-5.5v4.7h4c.6,0,1.5-.9,1.5-1.4v-3.3Z" /></symbol>
	<symbol id="cart" viewBox="0 0 40 40"><path d="M13,32.1c-0.5-0.5-1.1-0.7-1.9-0.7s-1.4,0.2-1.9,0.7c-0.5,0.5-0.7,1.1-0.7,1.9c0,0.7,0.2,1.4,0.7,1.9 c0.5,0.5,1.1,0.7,1.9,0.7s1.4-0.2,1.9-0.7c0.5-0.5,0.7-1.1,0.7-1.9S13.5,32.6,13,32.1z M31.2,32.1c-0.5-0.5-1-0.7-1.8-0.7 s-1.4,0.2-1.9,0.7c-0.5,0.5-0.7,1.1-0.7,1.9c0,0.7,0.2,1.4,0.7,1.9s1.1,0.7,1.9,0.7s1.4-0.2,1.9-0.7c0.5-0.5,0.7-1.1,0.7-1.9 S31.7,32.6,31.2,32.1z M34.2,9.8c-0.2-0.2-0.5-0.4-0.9-0.4H8.9c0-0.1,0-0.3-0.1-0.5c0-0.3-0.1-0.5-0.1-0.6c0-0.1-0.1-0.3-0.2-0.5 c0-0.2-0.1-0.4-0.2-0.5C8.1,7.1,8,7,7.8,6.9C7.6,6.8,7.4,6.8,7.2,6.8H2c-0.3,0-0.6,0.1-0.9,0.4C0.7,7.6,0.7,7.8,0.7,8.1 c0,0.3,0.1,0.6,0.4,0.9s0.5,0.4,0.9,0.4h4.2l3.5,17.8c0,0.1-0.1,0.3-0.3,0.6c-0.2,0.3-0.3,0.6-0.4,0.8c-0.1,0.2-0.2,0.4-0.3,0.7 c-0.1,0.3-0.2,0.5-0.2,0.6c0,0.3,0.1,0.6,0.4,0.9c0.2,0.2,0.5,0.4,0.9,0.4h20.9c0.3,0,0.6-0.1,0.9-0.4c0.2-0.2,0.4-0.5,0.4-0.9 c0-0.4-0.1-0.6-0.4-0.9c-0.2-0.2-0.5-0.4-0.9-0.4H12.1c0.3-0.6,0.5-1,0.5-1.4c0-0.1-0.1-0.6-0.3-1.5l21.3-2.5c0.3,0,0.6-0.2,0.8-0.4 c0.2-0.2,0.3-0.5,0.3-0.8V10.7C34.7,10.4,34.5,10.1,34.2,9.8z" /></symbol>
	<symbol id="folder" viewBox="0 0 40 40"><path d="M5,6.7c3.3,0,6.6,0,9.9,0c0,0,0,0,0.1,0c1.3,0.3,1.9,1.1,1.9,2.4c0,0.8,0,1.5,0,2.3c0,0.1,0,0.1,0,0.2c0.1,0,0.2,0,0.3,0 c3.8,0,7.6,0,11.5,0c0.2,0,0.4,0,0.5,0c1.2,0.2,1.9,1.1,1.9,2.3c0,1.5,0,2.9,0,4.4c0,0.1,0,0.2,0,0.3c0.1,0,0.2,0,0.3,0 c1.3,0,2.7,0,4,0c1.1,0,2.1,0,3.2,0c0.8,0,1.2,0.3,1.4,0.9c0,0,0,0.1,0,0.1c-0.1,0.2-0.2,0.5-0.3,0.7c-2.5,3.7-4.9,7.5-7.4,11.2 c-0.2,0.3-0.5,0.5-0.7,0.8c-0.4,0.3-0.9,0.6-1.5,0.7c-0.4,0.1-0.8,0.1-1.2,0.2c-7.9,0-15.7,0-23.6,0c-0.1,0-0.2,0-0.3,0 c-0.3-0.1-0.5-0.1-0.8-0.2C3.4,32.5,3,31.7,3,30.8c0-3.7,0-7.4,0-11.1c0-3.5,0-7.1,0-10.6C3,8,3.6,7.2,4.6,6.8 C4.7,6.8,4.9,6.8,5,6.7z M37.3,20.6c-0.1,0-0.2,0-0.3,0c-2.6,0-5.3,0-7.9,0c-4.7,0-9.4,0-14,0c-0.6,0-1.1,0.2-1.6,0.5 c-0.1,0.1-0.3,0.2-0.4,0.4c-2.2,3.3-4.3,6.5-6.5,9.8c0,0-0.1,0.1-0.1,0.2c0.1,0,0.1,0,0.2,0c7.4,0,14.7,0,22.1,0 c0.2,0,0.5,0,0.7-0.1c0.5-0.2,1-0.4,1.3-0.9c2.1-3.2,4.2-6.4,6.4-9.6C37.2,20.7,37.2,20.7,37.3,20.6z M29.3,18.7c0-0.1,0-0.2,0-0.3 c0-1.4,0-2.8,0-4.2c0-0.5-0.1-0.6-0.6-0.6c-4.4,0-8.9,0-13.3,0c-0.1,0-0.2,0-0.3,0c0-0.1,0-0.2,0-0.3c0-1.4,0-2.8,0-4.1 c0-0.4-0.2-0.6-0.6-0.6c-3,0-6.1,0-9.1,0C5,8.6,4.9,8.7,4.9,9.1c0,7,0,14,0,21c0,0.1,0,0.1,0,0.2C5,30.3,5,30.2,5,30.2 c2.2-3.2,4.3-6.5,6.5-9.8c0.3-0.4,0.6-0.7,0.9-0.9c0.8-0.5,1.7-0.8,2.6-0.8c4.6,0,9.3,0,13.9,0C29.1,18.7,29.2,18.7,29.3,18.7z"/></symbol>
	<symbol id="download" viewBox="0 0 40 40"><path d="M2.7,35.4v-2.2c0-.5.4-1,1-1h32.7c.5,0,1,.4,1,1v2.2c0,.5-.4,1-1,1H3.7c-.5,0-1-.4-1-1ZM16.9,26.3h0l-10-10.2c-.4-.4-.4-1,0-1.4l2.3-2.3c.4-.4,1-.4,1.4,0l6.8,6.8V3.8c0-.5.4-1,1-1h3.2c.5,0,1,.4,1,1v15.4l6.7-6.7c.4-.4,1-.4,1.4,0l2.3,2.3c.4.4.4,1,0,1.4l-10.1,10.1h0l-2.3,2.3c-.4.4-1,.4-1.4,0l-2.3-2.3h0Z" /></symbol>
	<symbol id="twitch" viewBox="0 0 40 40"><path d="M23.9,33.6h-5.2l-6.5,6.5v-6.5H4.5V10.4L11,3.9h24.5V22L23.9,33.6z M32.9,6.5H12.2 v19.4h5.2V31l5.2-5.2h5.2l5.2-5.2V6.5z M26.5,11.7H29v7.7h-2.6V11.7z M20,11.7h2.6v7.7H20V11.7z"/></symbol>
	<symbol id="x" viewBox="0 0 40 40"><path d="M36,36l-12.4-18.3,11.6-13.7h-4l-9.4,11-7.5-11H4.2l12,17.7-12.2,14.3h4l9.9-11.7,7.9,11.7h10.2,0ZM13,6.6l18.2,26.9h-4L9,6.6h4Z" /></symbol>
	<symbol id="star" viewBox="0 0 40 40"><path d="M19.3,1.4c.3-.6,1.2-.6,1.5,0l5.3,11.2,12.3,1.5c.7,0,1,.9.5,1.4l-9,8.5,2.3,12.2c.1.7-.6,1.2-1.2.9l-10.8-6-10.8,6c-.6.3-1.3-.2-1.2-.9l2.3-12.2L1.3,15.5c-.5-.5-.2-1.3.5-1.4l12.3-1.5L19.3,1.4Z" /></symbol>
	<symbol id="apparel" viewBox="0 0 40 40"><path d="M35.7,16l-4.8,0v18.6c0,1.1-0.6,1.6-1.6,1.6H20h0h0h-9.3c-1.1,0-1.6-0.6-1.6-1.6V16l-4.8,0L1,8.4l12.7-4.1 c0.1,0,0.2,0,0.2,0c0.5,0,0.7,0.4,0.8,0.8c0,0,0,0,0.1,0.1C15.3,6.9,16.6,9,19.9,9c0,0,0.1,0,0.1,0c0,0,0.1,0,0.1,0 c3.3,0,4.6-2.1,5.1-3.8c0,0,0.1-0.1,0.1-0.1c0.1-0.4,0.4-0.8,0.8-0.8c0,0,0.1,0,0.2,0L39,8.4L35.7,16z"/></symbol>
	<symbol id="instagram" viewBox="0 0 40 40"><path d="M20,7c4.2,0,4.7,0,6.3,0.1c1.5,0.1,2.3,0.3,3,0.5C30,8,30.5,8.3,31.1,8.9c0.5,0.5,0.9,1.1,1.2,1.8c0.2,0.5,0.5,1.4,0.5,3 C33,15.3,33,15.8,33,20s0,4.7-0.1,6.3c-0.1,1.5-0.3,2.3-0.5,3c-0.3,0.7-0.6,1.2-1.2,1.8c-0.5,0.5-1.1,0.9-1.8,1.2 c-0.5,0.2-1.4,0.5-3,0.5C24.7,33,24.2,33,20,33s-4.7,0-6.3-0.1c-1.5-0.1-2.3-0.3-3-0.5C10,32,9.5,31.7,8.9,31.1 C8.4,30.6,8,30,7.7,29.3c-0.2-0.5-0.5-1.4-0.5-3C7,24.7,7,24.2,7,20s0-4.7,0.1-6.3c0.1-1.5,0.3-2.3,0.5-3C8,10,8.3,9.5,8.9,8.9 C9.4,8.4,10,8,10.7,7.7c0.5-0.2,1.4-0.5,3-0.5C15.3,7.1,15.8,7,20,7z M20,4.3c-4.3,0-4.8,0-6.5,0.1c-1.6,0-2.8,0.3-3.8,0.7 C8.7,5.5,7.8,6,6.9,6.9C6,7.8,5.5,8.7,5.1,9.7c-0.4,1-0.6,2.1-0.7,3.8c-0.1,1.7-0.1,2.2-0.1,6.5s0,4.8,0.1,6.5 c0,1.6,0.3,2.8,0.7,3.8c0.4,1,0.9,1.9,1.8,2.8c0.9,0.9,1.7,1.4,2.8,1.8c1,0.4,2.1,0.6,3.8,0.7c1.6,0.1,2.2,0.1,6.5,0.1 s4.8,0,6.5-0.1c1.6-0.1,2.9-0.3,3.8-0.7c1-0.4,1.9-0.9,2.8-1.8c0.9-0.9,1.4-1.7,1.8-2.8c0.4-1,0.6-2.1,0.7-3.8 c0.1-1.6,0.1-2.2,0.1-6.5s0-4.8-0.1-6.5c-0.1-1.6-0.3-2.9-0.7-3.8c-0.4-1-0.9-1.9-1.8-2.8c-0.9-0.9-1.7-1.4-2.8-1.8 c-1-0.4-2.1-0.6-3.8-0.7C24.8,4.3,24.3,4.3,20,4.3L20,4.3L20,4.3z"/><path d="M20,11.9c-4.5,0-8.1,3.7-8.1,8.1s3.7,8.1,8.1,8.1s8.1-3.7,8.1-8.1S24.5,11.9,20,11.9z M20,25.2c-2.9,0-5.2-2.3-5.2-5.2 s2.3-5.2,5.2-5.2s5.2,2.3,5.2,5.2S22.9,25.2,20,25.2z"/><path d="M30.6,11.6c0,1-0.8,1.9-1.9,1.9c-1,0-1.9-0.8-1.9-1.9s0.8-1.9,1.9-1.9C29.8,9.7,30.6,10.5,30.6,11.6z"/></symbol>
</svg>
